<svg xmlns="http://www.w3.org/2000/svg" xmlns:xlink="http://www.w3.org/1999/xlink" width="540.762" height="128.588" viewBox="0 0 540.762 128.588"><defs><style>.a{fill:none;}.b{clip-path:url(#a);}.c{fill:#710a13;}.d{fill:#710c13;}</style><clipPath id="a"><rect class="a" width="540.762" height="128.588"/></clipPath></defs><g class="b"><path class="c" d="M57.631,50.973c-2.945,0-5.772-2.125-7.765-5.833-4.461-8.316-5-25.01,7.765-45.14C70.388,20.13,69.854,36.824,65.4,45.14c-1.99,3.708-4.82,5.833-7.765,5.833"/><path class="c" d="M37.695,61.445c-10.261,0-25.132-9.081-35.746-29.3,1.2-.051,2.387-.071,3.552-.071,22.321,0,35.335,8.821,39.695,16.376,1.973,3.411,2.3,6.764.9,9.182s-4.465,3.812-8.4,3.812"/><path class="c" d="M5.5,96.509c-1.165,0-2.354-.02-3.552-.071,10.614-20.22,25.485-29.3,35.746-29.3,3.938,0,7,1.388,8.4,3.807s1.074,5.769-.9,9.183C40.836,87.689,27.823,96.509,5.5,96.509"/><path class="c" d="M57.631,128.588C44.871,108.451,45.4,91.761,49.866,83.451c1.99-3.706,4.82-5.84,7.765-5.84s5.775,2.134,7.765,5.84c4.458,8.31,4.995,25-7.765,45.137"/><path class="c" d="M109.764,96.509c-22.321,0-35.338-8.82-39.7-16.376-1.966-3.414-2.289-6.757-.892-9.183s4.455-3.807,8.4-3.807c10.265,0,25.134,9.075,35.746,29.3-1.2.051-2.391.071-3.549.071"/><path class="c" d="M62.724,73.107a12.009,12.009,0,0,0-10.184,0,12.272,12.272,0,0,0-1.557-4.973A12.1,12.1,0,0,0,47.444,64.3a11.916,11.916,0,0,0,5.1-8.821,11.9,11.9,0,0,0,10.184,0,11.943,11.943,0,0,0,5.094,8.818,11.93,11.93,0,0,0-5.094,8.814"/><path class="c" d="M77.573,61.445h-.006c-3.942,0-7-1.389-8.4-3.814s-1.075-5.769.895-9.18c4.364-7.555,17.376-16.376,39.7-16.376,1.158,0,2.35.02,3.549.071-10.613,20.218-25.477,29.3-35.74,29.3"/><path class="c" d="M41.619,36.554a44.355,44.355,0,0,0-7.356-4.332c-1.336-.631-2.757-1.22-4.238-1.766A66.54,66.54,0,0,1,28.819,14.38a67.244,67.244,0,0,1,13.313,9.093c-.117.67-.224,1.352-.314,2.018a45.321,45.321,0,0,0-.2,11.063"/><path class="c" d="M14.526,71.272A66.333,66.333,0,0,1,0,64.3a66.687,66.687,0,0,1,14.526-6.991c.534.44,1.061.873,1.6,1.282A45.535,45.535,0,0,0,25.6,64.3a44.068,44.068,0,0,0-7.425,4.2c-1.219.849-2.446,1.782-3.648,2.777"/><path class="c" d="M28.819,114.207a66.681,66.681,0,0,1,1.206-16.081c.647-.243,1.289-.484,1.918-.734a46.216,46.216,0,0,0,9.679-5.362,43.893,43.893,0,0,0-.081,8.541c.125,1.469.323,3,.59,4.537a67.427,67.427,0,0,1-13.312,9.1"/><path class="c" d="M86.443,114.207a67.349,67.349,0,0,1-13.317-9.1c.12-.667.231-1.341.322-2.008a46,46,0,0,0,.2-11.07A44.512,44.512,0,0,0,81,96.368c1.357.635,2.78,1.222,4.244,1.758a67.016,67.016,0,0,1,1.2,16.081"/><path class="c" d="M100.729,71.272c-.523-.43-1.054-.863-1.6-1.277a45.157,45.157,0,0,0-9.471-5.7,43.982,43.982,0,0,0,7.425-4.2c1.231-.855,2.455-1.794,3.648-2.787A66.638,66.638,0,0,1,115.262,64.3a66.431,66.431,0,0,1-14.533,6.976"/><path class="c" d="M73.649,36.554a44.793,44.793,0,0,0,.074-8.533c-.127-1.5-.326-3.032-.594-4.552A67.494,67.494,0,0,1,86.446,14.38a66.926,66.926,0,0,1-1.21,16.078c-.652.234-1.288.476-1.912.736a45.68,45.68,0,0,0-9.675,5.36"/><path class="d" d="M188.893,46.015h16.546v2.177c-1.867.87-2.55,2.116-2.366,4.788l1.993,29.857c.247,3.171,1.056,4.231,3.234,4.851v2.3H189.267V87.628c2.177-.689,2.674-2.119,2.487-4.98l-1.244-18.1L180,83.894h-5.037L162.645,62.621l-1.306,20.4c-.124,2.616.56,3.8,2.55,4.788v2.179H147.843V87.875c2.613-.562,2.924-2.116,3.171-5.908l1.556-25.69c.063-1.306.247-2.737.247-3.855a3.885,3.885,0,0,0-2.548-4.043V46.015h17.477l10.762,18.6Z"/><path class="d" d="M237.2,44.645h7.341l16.482,35.763c1.991,4.3,3.232,6.9,5.286,7.4v2.179H246.217v-2.24c1.37-.061,2.367-.682,2.367-1.991a11.7,11.7,0,0,0-1.121-3.605H231.788a14.8,14.8,0,0,0-1.493,3.855,1.765,1.765,0,0,0,1.93,1.8v2.179H215.679V87.81c2.364-.372,2.489-.621,7.711-12.314Zm2.49,17.479-4.541,11.195H244.1Z"/><path class="d" d="M295.027,89.989H276.18V88a3.692,3.692,0,0,0,2.738-3.857V53.229c0-2.921-.747-4.293-2.861-4.974v-2.24h18.907v2.114a3.884,3.884,0,0,0-2.8,3.733v9.7H311.82V53.229c0-3.357-.684-4.293-2.8-5.161V46.015h18.907v2.053a3.993,3.993,0,0,0-2.8,3.981V83.4c0,2.24.5,3.792,2.8,4.541v2.051H309.022V87.938a3.8,3.8,0,0,0,2.86-3.859V71.453H292.227V84.267a3.844,3.844,0,0,0,2.8,3.732Z"/><path class="d" d="M360.313,44.645h7.341l16.48,35.763c1.992,4.3,3.234,6.9,5.287,7.4v2.179h-20.09v-2.24c1.37-.061,2.364-.682,2.364-1.991a11.724,11.724,0,0,0-1.12-3.605H354.9a14.7,14.7,0,0,0-1.494,3.855,1.764,1.764,0,0,0,1.93,1.8v2.179H338.792V87.81c2.364-.372,2.487-.621,7.712-12.314ZM362.8,62.124l-4.538,11.195h8.955Z"/><path class="d" d="M394.823,46.015H434.63l4.6,12.439H436.31a6.047,6.047,0,0,0-5.411-2.735h-9.455V83.647c0,1.991.561,3.108,2.8,4.1v2.24H405.335v-2.24a3.763,3.763,0,0,0,2.86-3.92V55.719H398.68a6.209,6.209,0,0,0-5.474,2.8h-3.047Z"/><path class="d" d="M469.941,89.989H451.094V88a3.691,3.691,0,0,0,2.736-3.857V53.229c0-2.921-.745-4.293-2.862-4.974v-2.24h18.911v2.114a3.883,3.883,0,0,0-2.8,3.733v9.7h19.653V53.229c0-3.357-.684-4.293-2.8-5.161V46.015h18.909v2.053a3.99,3.99,0,0,0-2.8,3.981V83.4c0,2.24.5,3.792,2.8,4.541v2.051H483.934V87.938a3.8,3.8,0,0,0,2.861-3.859V71.453H467.143V84.267a3.842,3.842,0,0,0,2.8,3.732Z"/><path class="d" d="M521.915,46.015h18.847v2.114c-2.427.87-2.8,2.924-2.8,4.851V83.768c0,2.052.809,3.545,2.8,4.042v2.179H521.915V87.81c2.551-.808,2.8-2.795,2.8-4.6V52.98c0-1.927-.373-3.981-2.8-4.851Z"/></g></svg>